<?xml version="1.0" standalone="no"?><!DOCTYPE svg PUBLIC "-//W3C//DTD SVG 1.1//EN" "http://www.w3.org/Graphics/SVG/1.1/DTD/svg11.dtd"><svg t="1496749287170" class="icon" style="" viewBox="0 0 1024 1024" version="1.1" xmlns="http://www.w3.org/2000/svg" p-id="2373" xmlns:xlink="http://www.w3.org/1999/xlink" width="32" height="32"><defs><style type="text/css"></style></defs><path d="M12.899 317.527l462.133 463.018c8.589 8.6 19.866 12.904 31.143 12.904s22.553-4.305 31.143-12.904l473.788-474.689c8.318-8.333 12.894-19.415 12.894-31.204 0-11.789-4.581-22.866-12.899-31.199-17.168-17.204-45.107-17.204-62.28 0l-442.646 443.49L75.179 255.124c-8.318-8.333-19.38-12.92-31.143-12.92s-22.825 4.586-31.143 12.92C4.581 263.457 0 274.54 0 286.328c0 11.783 4.581 22.866 12.899 31.199z" fill="#0f88eb" p-id="2374"></path></svg>